<svg viewBox="700 730 1030 860" fill="none" xmlns="http://www.w3.org/2000/svg">
<path d="M1018 742C1045.39 742 1072.78 742 1101 742C1101.64 798.255 1102.08 854.505 1102.2 910.763C1102.21 918.225 1102.23 925.687 1102.25 933.15C1102.31 959.147 1102.37 985.144 1102.4 1011.14C1102.42 1024.13 1102.45 1037.11 1102.49 1050.1C1102.51 1058 1102.53 1065.9 1102.53 1073.81C1102.53 1079.79 1102.55 1085.77 1102.57 1091.75C1102.58 1094.19 1102.58 1096.63 1102.58 1099.07C1102.57 1102.4 1102.59 1105.73 1102.61 1109.06C1102.6 1110.02 1102.6 1110.97 1102.59 1111.96C1102.67 1119.76 1103.63 1127.62 1108.19 1134.12C1113.92 1137.95 1121.79 1137.15 1128.5 1137.15C1129.41 1137.15 1130.33 1137.15 1131.27 1137.16C1134.28 1137.16 1137.28 1137.17 1140.29 1137.17C1142.4 1137.17 1144.5 1137.17 1146.61 1137.18C1151.02 1137.18 1155.44 1137.19 1159.85 1137.19C1165.47 1137.19 1171.09 1137.2 1176.71 1137.22C1181.07 1137.23 1185.42 1137.23 1189.77 1137.23C1191.84 1137.23 1193.91 1137.23 1195.99 1137.24C1217.12 1137.32 1217.12 1137.32 1237.56 1132.38C1238.27 1132.11 1238.98 1131.85 1239.72 1131.59C1249.28 1127.93 1257.39 1122.56 1265.15 1115.96C1265.71 1115.48 1266.27 1115.01 1266.85 1114.51C1272.81 1109.39 1278.38 1103.91 1283.93 1098.34C1285.01 1097.26 1286.09 1096.18 1287.18 1095.1C1289.42 1092.85 1291.66 1090.61 1293.9 1088.36C1296.75 1085.5 1299.6 1082.65 1302.46 1079.81C1304.69 1077.59 1306.91 1075.36 1309.14 1073.13C1310.19 1072.08 1311.24 1071.03 1312.29 1069.98C1322.11 1060.74 1322.11 1060.74 1330 1050C1329.28 1042.29 1324.83 1036.43 1319.1 1031.52C1315.42 1028.48 1311.67 1025.52 1307.92 1022.56C1302.35 1018.04 1297.69 1012.72 1293.02 1007.31C1288.98 1002.69 1284.82 998.187 1280.61 993.714C1279.55 992.587 1278.5 991.456 1277.44 990.321C1258.97 970.48 1235.83 957.502 1208.35 956.497C1207.32 956.468 1206.29 956.44 1205.23 956.41C1204.11 956.373 1203 956.337 1201.86 956.299C1188.03 955.865 1174.2 955.65 1160.37 955.438C1157.7 955.394 1155.02 955.351 1152.35 955.307C1145.9 955.201 1139.45 955.099 1133 955C1132.11 950.425 1131.86 946.004 1131.87 941.358C1131.87 940.247 1131.87 940.247 1131.87 939.114C1131.86 936.684 1131.86 934.254 1131.87 931.824C1131.87 930.131 1131.87 928.438 1131.86 926.745C1131.86 923.207 1131.86 919.67 1131.87 916.132C1131.88 911.587 1131.87 907.043 1131.87 902.499C1131.86 899.008 1131.86 895.518 1131.87 892.027C1131.87 890.35 1131.87 888.674 1131.86 886.997C1131.86 884.663 1131.86 882.329 1131.87 879.995C1131.87 879.297 1131.87 878.6 1131.86 877.881C1131.89 873.114 1131.89 873.114 1133 872C1136.08 871.889 1139.14 871.843 1142.22 871.839C1143.19 871.834 1144.16 871.829 1145.16 871.824C1148.39 871.809 1151.62 871.802 1154.86 871.797C1157.11 871.791 1159.37 871.785 1161.62 871.78C1166.37 871.769 1171.12 871.763 1175.87 871.76C1181.9 871.754 1187.93 871.73 1193.96 871.702C1198.63 871.683 1203.3 871.678 1207.98 871.676C1210.19 871.673 1212.41 871.666 1214.63 871.652C1225.81 871.59 1236.8 871.845 1247.9 873.325C1249.2 873.498 1249.2 873.498 1250.53 873.675C1275.98 877.464 1297.82 891.125 1316.26 908.445C1318.49 910.523 1320.74 912.527 1323.06 914.5C1326.87 917.795 1330.39 921.363 1333.93 924.947C1337.19 928.24 1340.58 931.311 1344.1 934.328C1348.89 938.547 1353.28 943.104 1357.37 948C1360.63 951.793 1364.3 954.678 1368.25 957.723C1371.98 960.813 1375.34 964.217 1378.71 967.7C1381.97 971.047 1385.4 974.017 1389 977C1390.13 978.117 1391.26 979.237 1392.38 980.367C1394.41 982.418 1396.47 984.448 1398.53 986.48C1402.81 990.716 1407.09 994.959 1411.36 999.207C1413.94 1001.77 1416.51 1004.32 1419.1 1006.87C1421.61 1009.35 1424.12 1011.84 1426.62 1014.34C1428.03 1015.74 1429.44 1017.12 1429.44 1017.12L1426.77 1079.36C1423.58 1082.32 1420.29 1085.16 1417 1088C1415.31 1089.47 1413.62 1090.95 1411.94 1092.44C1411.16 1093.12 1410.39 1093.8 1409.59 1094.5C1407.49 1096.53 1405.6 1098.57 1403.7 1100.77C1399.95 1105.12 1395.95 1109.16 1391.87 1113.19C1391.19 1113.87 1390.5 1114.56 1389.79 1115.26C1388.45 1116.59 1387.11 1117.92 1385.78 1119.24C1382.48 1122.5 1379.21 1125.79 1375.95 1129.09C1374.86 1130.18 1373.77 1131.28 1372.69 1132.38C1372.16 1132.91 1371.63 1133.45 1371.08 1134.01C1368.21 1136.9 1365.27 1139.66 1362.18 1142.32C1357.36 1146.49 1352.87 1150.98 1348.37 1155.5C1347.56 1156.32 1346.74 1157.13 1345.89 1157.97C1342.31 1161.55 1338.83 1165.13 1335.6 1169.03C1333 1172 1333 1172 1330 1173C1329.5 1173.95 1329.01 1174.9 1328.5 1175.88C1317.68 1195.84 1291.83 1208.47 1271.13 1214.79C1269.76 1215.2 1268.38 1215.6 1267 1216C1265.97 1216.31 1264.93 1216.61 1263.87 1216.93C1251.63 1220.25 1238.95 1222.06 1226.29 1222.57C1225.32 1222.61 1224.36 1222.65 1223.36 1222.7C1207.87 1223.26 1192.37 1223.18 1176.87 1223.2C1174.11 1223.2 1171.35 1223.21 1168.59 1223.21C1159.92 1223.23 1151.24 1223.23 1142.57 1223.24C1132.62 1223.24 1122.66 1223.26 1112.71 1223.29C1104.96 1223.31 1097.22 1223.32 1089.47 1223.32C1084.87 1223.32 1080.26 1223.33 1075.65 1223.35C1071.33 1223.36 1067.01 1223.37 1062.69 1223.36C1061.11 1223.36 1059.54 1223.36 1057.96 1223.37C1046.78 1223.44 1036.75 1223.06 1027.75 1215.74C1020.46 1208.51 1018.21 1199.27 1017.88 1189.24C1017.87 1187.86 1017.87 1186.48 1017.88 1185.1C1017.88 1184.33 1017.87 1183.56 1017.87 1182.76C1017.87 1180.19 1017.88 1177.61 1017.88 1175.04C1017.88 1173.17 1017.88 1171.3 1017.88 1169.44C1017.87 1164.31 1017.88 1159.18 1017.88 1154.06C1017.89 1148.53 1017.89 1143 1017.89 1137.47C1017.89 1127.89 1017.89 1118.32 1017.89 1108.74C1017.9 1094.89 1017.9 1081.04 1017.91 1067.19C1017.91 1044.72 1017.91 1022.25 1017.92 999.784C1017.93 977.957 1017.94 956.13 1017.94 934.303C1017.95 933.631 1017.95 932.958 1017.95 932.264C1017.95 925.507 1017.95 918.749 1017.95 911.992C1017.96 855.328 1017.98 798.664 1018 742Z" fill="#1D1E22"/>
<path d="M1220.77 1375.79C1221.88 1375.78 1221.88 1375.78 1223.02 1375.76C1225.45 1375.73 1227.88 1375.71 1230.32 1375.69C1231.15 1375.68 1231.99 1375.68 1232.85 1375.67C1237.26 1375.64 1241.68 1375.61 1246.1 1375.6C1249.74 1375.58 1253.39 1375.54 1257.03 1375.49C1261.45 1375.43 1265.87 1375.4 1270.29 1375.39C1271.96 1375.38 1273.64 1375.36 1275.32 1375.34C1277.67 1375.3 1280.01 1375.3 1282.36 1375.3C1283.05 1375.28 1283.74 1375.26 1284.44 1375.24C1288.07 1375.3 1290.63 1376.02 1293.43 1378.24C1297.57 1382.97 1296.81 1388.93 1296.73 1394.88C1296.73 1396.18 1296.74 1397.48 1296.75 1398.82C1296.76 1402.37 1296.74 1405.92 1296.71 1409.47C1296.68 1409.47 1296.68 1409.47 1296.69 1420.66C1296.68 1426.93 1296.66 1433.2 1296.62 1439.47C1296.57 1446.69 1296.55 1453.92 1296.56 1461.14C1296.56 1468.85 1296.54 1476.57 1296.51 1484.29C1296.5 1486.5 1296.5 1488.7 1296.5 1490.91C1296.5 1495.06 1296.47 1499.2 1296.44 1503.34C1296.44 1505.16 1296.44 1505.16 1296.44 1507.01C1296.27 1522.37 1291.79 1537.92 1282 1550C1262.16 1568.52 1236.93 1568.59 1211.44 1568.25C1208.77 1568.23 1206.1 1568.21 1203.43 1568.2C1196.95 1568.16 1190.48 1568.08 1184 1568C1184 1556.45 1184 1544.9 1184 1533C1186.59 1532.95 1189.18 1532.9 1191.86 1532.85C1194.41 1532.8 1196.97 1532.74 1199.52 1532.68C1201.28 1532.64 1203.03 1532.61 1204.78 1532.58C1221.4 1532.27 1236.96 1531.83 1251 1522C1251.66 1522 1252.32 1522 1253 1522C1253.19 1521.42 1253.39 1520.84 1253.59 1520.24C1255.06 1515.83 1256.53 1511.41 1258 1507C1257.14 1507.47 1256.28 1507.94 1255.39 1508.43C1239.34 1516.99 1220.81 1520.23 1202.81 1515.88C1185.97 1510.1 1170.48 1498.01 1162.12 1482.25C1152.97 1462.6 1150.64 1439.56 1158 1419C1164.32 1402.77 1176.11 1388.54 1192 1381C1201.49 1377.68 1210.71 1375.88 1220.77 1375.79Z" fill="#1E1F23"/>
<path d="M714.44 1325.77C715.91 1325.77 717.381 1325.78 718.851 1325.8C719.537 1325.81 720.223 1325.81 720.93 1325.81C723.495 1325.82 726.06 1325.85 728.625 1325.88C737.225 1325.94 737.225 1325.94 746 1326C746 1342.5 746 1359 746 1376C758.727 1375.88 758.727 1375.88 771.455 1375.73C791.638 1375.57 810.701 1378.06 827 1391C828.075 1391.85 828.075 1391.85 829.172 1392.71C830.836 1394.08 832.427 1395.53 834 1397C834 1397.66 834 1398.32 834 1399C834.66 1399 835.32 1399 836 1399C845.474 1414.55 850.383 1429.14 850.25 1447.5C850.258 1448.56 850.265 1449.63 850.273 1450.72C850.232 1467.52 844.86 1480.48 835 1494C834.529 1494.67 834.059 1495.34 833.574 1496.03C824.458 1507.89 808.369 1513.87 794 1516C788.188 1516.35 782.38 1516.4 776.558 1516.44C775.727 1516.45 774.896 1516.46 774.039 1516.46C769.647 1516.5 765.255 1516.52 760.862 1516.54C756.344 1516.55 751.827 1516.61 747.309 1516.68C743.815 1516.72 740.321 1516.74 736.826 1516.74C735.161 1516.75 733.496 1516.77 731.831 1516.8C729.497 1516.84 727.167 1516.84 724.834 1516.83C723.818 1516.86 723.818 1516.86 722.782 1516.89C717.695 1516.79 714.14 1515.06 710.568 1511.59C707.018 1505.72 707.955 1498.27 708.06 1491.62C708.059 1489.84 708.054 1488.06 708.047 1486.28C708.036 1481.45 708.075 1476.63 708.123 1471.81C708.165 1466.76 708.164 1461.71 708.168 1456.66C708.181 1448.19 708.224 1439.72 708.286 1431.25C708.367 1420.37 708.402 1409.48 708.421 1398.6C708.438 1389.25 708.472 1379.9 708.511 1370.55C708.523 1367.54 708.534 1364.53 708.544 1361.52C708.561 1356.8 708.59 1352.08 708.627 1347.36C708.64 1345.62 708.648 1343.89 708.654 1342.15C708.662 1339.79 708.682 1337.43 708.706 1335.06C708.705 1334.37 708.705 1333.68 708.704 1332.96C708.775 1327.98 709.035 1326.13 714.44 1325.77Z" fill="#1E1F23"/>
<path d="M1379.96 1377.82C1380.94 1377.81 1380.94 1377.81 1381.95 1377.8C1384.09 1377.78 1386.24 1377.77 1388.38 1377.76C1389.12 1377.76 1389.86 1377.75 1390.62 1377.75C1394.51 1377.73 1398.41 1377.71 1402.31 1377.7C1406.32 1377.69 1410.34 1377.66 1414.35 1377.62C1417.45 1377.59 1420.55 1377.59 1423.65 1377.58C1425.13 1377.58 1426.61 1377.57 1428.09 1377.55C1430.16 1377.52 1432.23 1377.52 1434.3 1377.53C1436.06 1377.52 1436.06 1377.52 1437.86 1377.51C1441.72 1378.11 1443.27 1379.25 1446 1382C1448.5 1385.57 1449.37 1387.95 1449.37 1392.3C1449.37 1393.34 1449.38 1394.39 1449.38 1395.47C1449.37 1397.18 1449.37 1397.18 1449.36 1398.92C1449.36 1400.13 1449.36 1401.33 1449.36 1402.58C1449.37 1405.88 1449.35 1409.18 1449.34 1412.48C1449.32 1415.94 1449.32 1419.39 1449.32 1422.85C1449.32 1428.65 1449.3 1434.45 1449.28 1440.25C1449.25 1447.69 1449.24 1455.14 1449.24 1462.59C1449.23 1468.99 1449.22 1475.4 1449.21 1481.8C1449.2 1483.86 1449.2 1485.92 1449.2 1487.98C1449.19 1491.81 1449.18 1495.64 1449.16 1499.47C1449.16 1500.61 1449.16 1501.76 1449.16 1502.94C1449.15 1503.98 1449.15 1505.02 1449.14 1506.09C1449.14 1506.99 1449.13 1507.9 1449.13 1508.83C1449 1511 1449 1511 1448 1513C1443.75 1513.02 1439.49 1513.04 1435.24 1513.05C1433.79 1513.06 1432.34 1513.07 1430.89 1513.08C1428.82 1513.09 1426.74 1513.09 1424.66 1513.1C1423.41 1513.1 1422.16 1513.11 1420.87 1513.11C1418 1513 1418 1513 1417 1512C1416.93 1510.15 1416.92 1508.29 1416.94 1506.44C1416.95 1505.43 1416.96 1504.41 1416.96 1503.37C1416.98 1502.59 1416.99 1501.81 1417 1501C1416.06 1501.54 1415.12 1502.09 1414.15 1502.64C1412.89 1503.37 1411.63 1504.09 1410.37 1504.81C1409.76 1505.17 1409.14 1505.53 1408.5 1505.89C1397.74 1512.07 1389.72 1514.36 1377.31 1514.37C1376.2 1514.4 1375.1 1514.42 1373.96 1514.45C1357.67 1514.51 1342.76 1507.11 1330.57 1496.55C1317.82 1483.88 1312 1466.7 1311.76 1448.96C1311.71 1428.79 1316.09 1412.97 1329.45 1397.5C1342.91 1384.28 1361.26 1377.98 1379.96 1377.82Z" fill="#4B58C1"/>
<path d="M1027.35 1375.63C1028.44 1375.62 1028.44 1375.62 1029.54 1375.62C1031.93 1375.61 1034.31 1375.62 1036.69 1375.64C1038.36 1375.64 1040.03 1375.64 1041.7 1375.64C1045.19 1375.64 1048.69 1375.65 1052.19 1375.66C1056.64 1375.69 1061.09 1375.69 1065.55 1375.68C1068.99 1375.68 1072.44 1375.68 1075.89 1375.69C1077.53 1375.7 1079.17 1375.7 1080.81 1375.7C1098.69 1375.69 1115.57 1377.39 1129.74 1389.53C1140.33 1401.12 1143.17 1415.2 1143.13 1430.43C1143.13 1431.79 1143.13 1431.79 1143.13 1433.18C1143.14 1436.15 1143.14 1439.12 1143.13 1442.09C1143.13 1444.16 1143.13 1446.23 1143.14 1448.3C1143.14 1452.63 1143.14 1456.96 1143.13 1461.28C1143.12 1466.84 1143.13 1472.4 1143.13 1477.96C1143.14 1482.22 1143.14 1486.49 1143.13 1490.76C1143.13 1492.81 1143.13 1494.87 1143.14 1496.92C1143.14 1499.77 1143.14 1502.62 1143.13 1505.48C1143.13 1506.33 1143.13 1507.18 1143.14 1508.06C1143.11 1513.89 1143.11 1513.89 1142 1515C1139.33 1515.09 1136.69 1515.12 1134.03 1515.1C1133.23 1515.1 1132.43 1515.09 1131.61 1515.09C1129.05 1515.09 1126.5 1515.08 1123.94 1515.06C1122.21 1515.06 1120.48 1515.05 1118.75 1515.05C1114.5 1515.04 1110.25 1515.02 1106 1515C1105.98 1513.53 1105.98 1513.53 1105.95 1512.03C1105.8 1502.76 1105.62 1493.49 1105.43 1484.23C1105.33 1479.46 1105.23 1474.7 1105.16 1469.93C1105.08 1465.33 1104.99 1460.73 1104.88 1456.12C1104.85 1454.37 1104.82 1452.62 1104.79 1450.87C1104.66 1441.43 1104.37 1433.57 1100 1425C1099.45 1423.52 1098.91 1422.04 1098.38 1420.56C1096.72 1417.45 1095.38 1416.38 1092.02 1415.32C1083.99 1413.15 1075.63 1413.43 1067.38 1413.31C1065.69 1413.28 1064 1413.24 1062.31 1413.21C1058.21 1413.12 1054.1 1413.06 1050 1413C1050 1413.66 1050 1414.32 1050.01 1415C1050.03 1423.46 1050.05 1431.92 1050.06 1440.38C1050.06 1441.05 1050.06 1441.73 1050.07 1442.43C1050.09 1466.63 1049.77 1490.81 1049 1515C1043.89 1515.02 1038.78 1515.04 1033.67 1515.05C1031.93 1515.06 1030.2 1515.07 1028.46 1515.08C1025.96 1515.09 1023.47 1515.09 1020.97 1515.1C1020.19 1515.1 1019.41 1515.11 1018.6 1515.11C1016.73 1515.11 1014.87 1515.06 1013 1515C1011.34 1513.34 1011.87 1511.39 1011.86 1509.11C1011.85 1507.52 1011.85 1507.52 1011.84 1505.9C1011.84 1504.73 1011.84 1503.56 1011.84 1502.36C1011.83 1501.13 1011.83 1499.9 1011.82 1498.64C1011.81 1495.27 1011.8 1491.89 1011.8 1488.52C1011.8 1486.41 1011.79 1484.3 1011.79 1482.19C1011.77 1475.59 1011.77 1468.99 1011.76 1462.38C1011.76 1454.77 1011.74 1447.16 1011.71 1439.54C1011.69 1433.65 1011.68 1427.77 1011.68 1421.88C1011.68 1418.36 1011.67 1414.85 1011.65 1411.34C1011.63 1407.41 1011.64 1403.48 1011.64 1399.55C1011.63 1398.39 1011.63 1397.24 1011.62 1396.04C1011.65 1389.68 1012.01 1384.68 1015 1379C1018.84 1375.59 1022.35 1375.63 1027.35 1375.63Z" fill="#1D1E22"/>
<path d="M1643.53 1341.77C1645.04 1341.77 1646.56 1341.78 1648.07 1341.8C1648.87 1341.81 1649.66 1341.81 1650.48 1341.81C1653.03 1341.82 1655.58 1341.85 1658.13 1341.88C1659.85 1341.89 1661.58 1341.89 1663.3 1341.9C1667.53 1341.92 1671.77 1341.96 1676 1342C1676 1352.89 1676 1363.78 1676 1375C1686.08 1374.96 1686.08 1374.96 1696.16 1374.91C1711.93 1374.88 1711.93 1374.88 1718 1376C1719.7 1377.7 1719.13 1379.85 1719.14 1382.12C1719.14 1383.19 1719.14 1383.19 1719.13 1384.28C1719.13 1385.01 1719.13 1385.74 1719.14 1386.49C1719.14 1388.03 1719.13 1389.58 1719.13 1391.12C1719.13 1393.49 1719.13 1395.86 1719.14 1398.23C1719.14 1399.73 1719.13 1401.22 1719.13 1402.72C1719.13 1403.43 1719.14 1404.15 1719.14 1404.88C1719.11 1409.89 1719.11 1409.89 1718 1411C1714.9 1411.09 1711.82 1411.12 1708.71 1411.1C1707.78 1411.1 1706.85 1411.09 1705.89 1411.09C1702.91 1411.09 1699.92 1411.08 1696.94 1411.06C1694.92 1411.06 1692.9 1411.05 1690.88 1411.05C1685.92 1411.04 1680.96 1411.02 1676 1411C1676.07 1418.03 1676.16 1425.05 1676.26 1432.08C1676.3 1434.46 1676.32 1436.84 1676.35 1439.23C1675.78 1457.5 1675.78 1457.5 1680 1475C1686.05 1480.6 1694.66 1480.33 1702.44 1480.56C1704.23 1480.62 1706.02 1480.69 1707.81 1480.75C1708.98 1480.79 1708.98 1480.79 1710.18 1480.83C1714.13 1481.07 1718.06 1481.56 1722 1482C1722 1492.89 1722 1503.78 1722 1515C1717.31 1516.87 1714.02 1517.31 1709.13 1517.3C1707.99 1517.31 1707.99 1517.31 1706.83 1517.31C1705.22 1517.32 1703.62 1517.32 1702.01 1517.32C1699.6 1517.31 1697.19 1517.34 1694.78 1517.36C1678.94 1517.43 1663.67 1515.36 1650.78 1505.26C1639.59 1493.8 1637.69 1477.04 1637.74 1461.87C1637.74 1460.6 1637.73 1459.32 1637.73 1458C1637.72 1454.54 1637.72 1451.07 1637.73 1447.6C1637.74 1443.96 1637.73 1440.32 1637.73 1436.68C1637.72 1430.58 1637.73 1424.49 1637.74 1418.39C1637.75 1411.33 1637.75 1404.28 1637.74 1397.22C1637.73 1391.16 1637.73 1385.09 1637.73 1379.02C1637.73 1375.41 1637.73 1371.79 1637.73 1368.17C1637.72 1364.14 1637.73 1360.12 1637.74 1356.09C1637.74 1354.89 1637.73 1353.69 1637.73 1352.45C1637.73 1351.36 1637.74 1350.27 1637.75 1349.15C1637.75 1348.2 1637.75 1347.24 1637.75 1346.26C1638.2 1342.24 1639.67 1342.02 1643.53 1341.77Z" fill="#1F2024"/>
<path d="M923.688 1375.81C925.661 1375.83 927.634 1375.84 929.607 1375.85C934.405 1375.88 939.202 1375.94 944 1376C944 1387.55 944 1399.1 944 1411C931.625 1411.25 931.625 1411.25 927.788 1411.3C919.05 1411.56 910.703 1412.94 904 1419C902.651 1423.17 902.789 1427.45 902.719 1431.79C902.701 1432.68 902.683 1433.56 902.664 1434.48C902.626 1436.4 902.589 1438.32 902.554 1440.25C902.5 1443.28 902.439 1446.32 902.377 1449.36C902.224 1456.9 902.081 1464.44 901.938 1471.98C901.816 1478.36 901.691 1484.74 901.56 1491.11C901.5 1494.11 901.446 1497.11 901.393 1500.11C901.356 1501.94 901.319 1503.77 901.281 1505.6C901.261 1506.86 901.261 1506.86 901.24 1508.15C901.114 1513.89 901.114 1513.89 900 1515C897.334 1515.09 894.694 1515.12 892.027 1515.1C891.23 1515.1 890.432 1515.09 889.61 1515.09C887.053 1515.09 884.495 1515.08 881.938 1515.06C880.208 1515.06 878.478 1515.05 876.748 1515.05C872.499 1515.04 868.249 1515.02 864 1515C863.907 1502.09 863.836 1489.18 863.793 1476.27C863.772 1470.27 863.744 1464.28 863.698 1458.28C863.654 1452.49 863.631 1446.69 863.621 1440.89C863.613 1438.69 863.599 1436.49 863.577 1434.29C863.416 1417.34 863.535 1401.08 875.848 1388.04C880.439 1383.71 885.111 1381.16 891 1379C891.694 1378.73 892.387 1378.46 893.102 1378.18C903.008 1374.88 913.386 1375.68 923.688 1375.81Z" fill="#1E1F23"/>
<path d="M1588.25 1375.86C1588.98 1375.86 1589.71 1375.87 1590.46 1375.87C1591.21 1375.87 1591.96 1375.87 1592.73 1375.86C1594.32 1375.86 1595.91 1375.87 1597.49 1375.87C1599.92 1375.87 1602.36 1375.87 1604.79 1375.86C1606.33 1375.86 1607.86 1375.87 1609.4 1375.87C1610.13 1375.87 1610.86 1375.86 1611.62 1375.86C1616.77 1375.89 1616.77 1375.89 1619 1377C1619.02 1394.85 1619.04 1412.69 1619.05 1430.54C1619.06 1438.82 1619.06 1447.11 1619.08 1455.39C1619.09 1462.61 1619.09 1469.83 1619.09 1477.05C1619.1 1480.87 1619.1 1484.7 1619.11 1488.52C1619.11 1492.12 1619.11 1495.71 1619.11 1499.31C1619.11 1501.27 1619.12 1503.22 1619.12 1505.18C1619.12 1506.34 1619.12 1507.49 1619.12 1508.68C1619.12 1509.69 1619.12 1510.7 1619.12 1511.74C1619 1514 1619 1514 1618 1515C1615.33 1515.09 1612.69 1515.12 1610.03 1515.1C1609.23 1515.1 1608.43 1515.09 1607.61 1515.09C1605.05 1515.09 1602.5 1515.08 1599.94 1515.06C1598.21 1515.06 1596.48 1515.05 1594.75 1515.05C1590.5 1515.04 1586.25 1515.02 1582 1515C1581.98 1497.02 1581.96 1479.05 1581.95 1461.07C1581.94 1452.73 1581.94 1444.38 1581.92 1436.04C1581.91 1428.76 1581.91 1421.49 1581.91 1414.22C1581.9 1410.37 1581.9 1406.52 1581.89 1402.66C1581.89 1399.04 1581.89 1395.42 1581.89 1391.8C1581.89 1389.83 1581.88 1387.85 1581.88 1385.88C1581.88 1384.72 1581.88 1383.56 1581.88 1382.36C1581.88 1381.34 1581.88 1380.33 1581.88 1379.28C1582.11 1374.94 1584.47 1375.88 1588.25 1375.86Z" fill="#1F2024"/>
<path d="M1180.33 991.641C1186.38 996.559 1188.15 1003.93 1190.04 1011.19C1191.61 1016.86 1194.06 1021.2 1199.25 1024.37C1205.42 1025.78 1210.69 1025.19 1216.75 1023.5C1226.65 1020.88 1235.04 1020.71 1244.17 1025.61C1246 1027 1246 1027 1247 1030C1248.49 1031.2 1249.98 1032.4 1251.53 1033.52C1255.31 1037.32 1255.35 1042.09 1255.44 1047.19C1255.42 1055.07 1253.62 1060.88 1248.39 1066.84C1242.05 1072.8 1235.41 1074.46 1226.85 1074.24C1224.03 1074 1221.34 1073.56 1218.56 1073C1211.54 1071.6 1204.45 1070.87 1197.56 1073.12C1190.87 1078.02 1189.54 1082.12 1187.81 1090.02C1186.41 1095.16 1183.88 1099.18 1180.06 1102.87C1174.84 1105.73 1169.88 1106.72 1164 1106C1158.24 1104.08 1153.31 1100.08 1150 1095C1148.33 1087.99 1149.77 1082.06 1153.32 1075.94C1157.53 1071.08 1160.68 1069.31C1169.33 1069.19 1171.63 1069.09 1173.94 1069C1184.61 1068.61 1184.61 1068.61 1194 1064C1194.66 1064 1195.32 1064 1196 1064C1196.5 1062.51 1196.5 1062.51 1197 1061C1197.99 1061 1198.98 1061 1200 1061C1200.08 1058 1200.14 1055 1200.19 1052C1200.21 1051.16 1200.24 1050.32 1200.26 1049.46C1200.35 1042.33 1199.31 1036.73 1194.56 1031.12C1190.27 1027.57 1187.57 1026.76 1181.98 1026.83C1180.82 1026.82 1179.65 1026.82 1178.44 1026.81C1176 1026.81 1173.55 1026.83 1171.11 1026.87C1163.9 1026.79 1159.66 1026.1 1154.46 1020.94C1150.82 1016.11 1149.35 1010.06 1149.57 1004.05C1150.66 998.805 1153.85 993.41 1158 990C1164.88 987.485 1174.04 987.846 1180.33 991.641Z" fill="#4D59C1"/>
<path d="M956 1376C967.88 1376 979.76 1376 992 1376C992 1421.87 992 1467.74 992 1515C980.12 1515 968.24 1515 956 1515C956 1469.13 956 1423.26 956 1376Z" fill="#202024"/>
<path d="M1382.86 1407.87C1384.28 1407.87 1384.28 1407.87 1385.72 1407.86C1387.71 1407.86 1389.7 1407.87 1391.69 1407.87C1394.75 1407.88 1397.81 1407.87 1400.87 1407.86C1402.8 1407.86 1404.74 1407.87 1406.67 1407.87C1407.59 1407.87 1408.51 1407.86 1409.46 1407.86C1415.88 1407.89 1415.88 1407.89 1417 1409C1417.11 1410.61 1417.15 1412.23 1417.16 1413.85C1417.17 1414.89 1417.18 1415.92 1417.19 1416.99C1417.19 1418.12 1417.2 1419.25 1417.2 1420.41C1417.21 1421.57 1417.21 1422.72 1417.22 1423.91C1417.23 1426.37 1417.24 1428.82 1417.24 1431.28C1417.25 1435.02 1417.28 1438.76 1417.31 1442.51C1417.32 1444.89 1417.32 1447.28 1417.33 1449.66C1417.34 1450.78 1417.35 1451.89 1417.37 1453.04C1417.34 1461.55 1416.07 1468.77 1410.13 1475.26C1400.13 1483.42 1388.62 1485.73 1376 1485C1365.01 1482.76 1355.54 1476.5 1349.12 1467.25C1343.86 1457.84 1342.12 1445.62 1344 1435C1346.99 1425.36 1352.81 1417.85 1361 1412C1368.49 1408.39 1374.7 1407.85 1382.86 1407.87Z" fill="#F6F4EF"/>
<path d="M1474 1379C1484.23 1379 1494.46 1379 1505 1379C1506.69 1380.69 1506.13 1382.81 1506.13 1385.12C1506.13 1386.24 1506.13 1387.35 1506.14 1388.49C1506.13 1389.72 1506.13 1390.95 1506.13 1392.21C1506.13 1393.5 1506.13 1394.79 1506.13 1396.11C1506.14 1399.65 1506.14 1403.19 1506.13 1406.72C1506.13 1410.42 1506.13 1414.11 1506.14 1417.8C1506.14 1424.01 1506.14 1430.21 1506.13 1436.42C1506.12 1443.6 1506.13 1450.78 1506.13 1457.97C1506.14 1464.12 1506.14 1470.28 1506.13 1476.43C1506.13 1480.12 1506.13 1483.8 1506.14 1487.48C1506.14 1491.58 1506.13 1495.68 1506.13 1499.79C1506.13 1501.01 1506.13 1502.24 1506.14 1503.51C1506.13 1504.62 1506.13 1505.73 1506.13 1506.88C1506.13 1507.85 1506.13 1508.82 1506.13 1509.82C1506 1512 1506 1512 1505 1513C1494.77 1513 1484.54 1513 1474 1513C1474 1468.78 1474 1424.56 1474 1379Z" fill="#4B58C1"/>
<path d="M746 1411C755.498 1410.85 755.498 1410.85 765.188 1410.69C767.157 1410.64 769.127 1410.6 771.157 1410.55C790.955 1410.28 790.955 1410.28 799 1416C799.688 1418.62 799.688 1418.62 800 1421C801.657 1421.69 803.326 1422.35 805 1423C811.729 1429.41 813.15 1436.98 813.375 1446.06C813.148 1455.56 810.815 1463.03 804.094 1469.97C801.778 1472.15 799.586 1474.13 797 1476C796.409 1476.44 795.818 1476.89 795.208 1477.35C786.356 1482.91 775.914 1481.54 765.875 1481.31C756.037 1481.16 756.037 1481.16 746 1481C746 1457.9 746 1434.8 746 1411Z" fill="#F5F3ED"/>
<path d="M1227.65 1410.8C1229 1410.81 1229 1410.81 1230.38 1410.81C1233.23 1410.82 1236.09 1410.85 1238.94 1410.87C1240.88 1410.89 1242.82 1410.89 1244.77 1410.9C1249.51 1410.92 1254.26 1410.96 1259 1411C1259.15 1418.22 1259.26 1425.44 1259.33 1432.67C1259.36 1435.12 1259.4 1437.58 1259.45 1440.03C1259.53 1443.57 1259.56 1447.11 1259.59 1450.65C1259.62 1451.73 1259.65 1452.82 1259.68 1453.94C1259.68 1461.64 1257.91 1466.99 1253 1473C1244.21 1480.7 1234.23 1482.73 1222.75 1482.48C1216.67 1481.7 1212.07 1479.35 1207 1476C1206.23 1475.49 1205.45 1474.99 1204.66 1474.46C1196.83 1468.52 1193.84 1458.92 1192.29 1449.5C1191.02 1438.43 1192.76 1432.29 1199.25 1423.37C1207.23 1413.51 1215.27 1410.66 1227.65 1410.8Z" fill="#F7F5EF"/>
<path d="M975.562 1322.75C977.483 1322.74 977.483 1322.74 979.441 1322.73C984.897 1323.14 987.987 1324.57 991.75 1328.5C992.343 1329.11 992.936 1329.72 993.547 1330.34C996.764 1334.01 996.257 1337.98 996.312 1342.62C996.341 1344.19 996.37 1344.19 996.4 1345C996.463 1350.83 995.232 1355.12 992 1360C986.419 1365.58 980.815 1367.21 973.125 1367.56C966.248 1367.41 961.932 1365.79 957 1361C952.537 1355.8 951.798 1350.85 951.75 1344.19C951.729 1343.49 951.709 1342.79 951.687 1342.07C951.652 1337.27 952.426 1334.05 955 1330C956.613 1328.39 956.613 1328.39 958.312 1327.25C958.865 1326.86 959.418 1326.48 959.988 1326.08C965.147 1323.31 969.752 1322.73 975.562 1322.75Z" fill="#1E1F23"/>
<path d="M1600.38 1322.75C1601.12 1322.73 1601.86 1322.71 1602.63 1322.69C1607.5 1322.65 1610.8 1323.28 1615 1326C1616.86 1327.87 1616.86 1327.87 1618.31 1329.87C1619.05 1330.86 1619.05 1330.86 1619.8 1331.87C1623.5 1338.44 1622.85 1347.76 1621 1354.81C1617.73 1360.02 1612.85 1364.81 1607 1367C1599.52 1367.85 1592.1 1368.46 1585.63 1364.12C1581.41 1360.76 1579.42 1358.29 1578 1353C1577.1 1343.41 1577.25 1335.77 1583.46 1328.23C1588.63 1322.64 1593.11 1322.8 1600.38 1322.75Z" fill="#1E1F23"/>
<path d="M1558.87 1476.37C1563.18 1479.67 1565.31 1483.94 1567 1489C1567.67 1496.4 1567.68 1502.95 1563 1509C1557.25 1514.95 1552.74 1518.28 1544.31 1518.5C1537.3 1518.39 1533.03 1516.89 1528 1512C1524.13 1507.58 1521.58 1503.32 1521.73 1497.29C1522.82 1487.99 1525.48 1481.34 1532.78 1475.39C1540.53 1470.53 1551.25 1472.08 1558.87 1476.37Z" fill="#202124"/>
<path d="M1499.59 1327.06C1501.7 1328.55 1503.31 1330.05 1505 1332C1505.79 1332.89 1505.79 1332.89 1506.59 1333.79C1510.06 1338.45 1510.72 1342.71 1510.41 1348.46C1509.27 1355.5 1503.33 1359.81 1498 1364C1493.05 1366.48 1485.82 1365.55 1480.69 1364C1476.44 1360.84 1472.39 1356.78 1470 1352C1469.34 1344.25 1469.28 1338.35 1474 1332C1474.66 1332 1475.32 1332 1476 1332C1476.25 1331.38 1476.5 1330.76 1476.75 1330.12C1480.69 1323.42 1493.25 1324.46 1499.59 1327.06Z" fill="#4F5CC2"/>
<path d="M1165.13 997.938C1170.17 998.786 1173.59 1002.4 1177 1006C1178.51 1009.01 1178.18 1011.68 1178 1015C1176 1017 1176 1017 1172.69 1017.31C1167.61 1016.88 1165.37 1015.26 1161.69 1011.88C1159.41 1007.99 1159.25 1004.42 1160 1000C1162 998 1162 998 1165.13 997.938Z" fill="#F2F0EE"/>
<path d="M1489.07 1336.9C1490.3 1336.92 1490.3 1336.92 1491.56 1336.94C1492.39 1336.95 1493.22 1336.96 1494.07 1336.96C1494.7 1336.98 1495.34 1336.99 1496 1337C1496.71 1341.75 1496.9 1345.48 1494.39 1349.7C1490.59 1354.24 1490.59 1354.24 1488 1356C1485.31 1355.84 1485.31 1355.84 1483 1355C1480.59 1352.13 1480.53 1348.64 1480.6 1344.97C1481.27 1341.65 1483.45 1340.05 1486 1338C1487 1337 1487 1337 1489.07 1336.9Z" fill="#F2F1EE"/>
</svg>
