<svg width="428" height="482" viewBox="0 0 428 482" fill="none" xmlns="http://www.w3.org/2000/svg">
<path d="M0.127343 0C27.5173 0 54.9073 0 83.1273 0C83.7628 56.2548 84.2032 112.505 84.3237 168.763C84.3397 176.225 84.3579 183.687 84.3761 191.15C84.4392 217.147 84.4975 243.144 84.5318 269.141C84.5492 282.127 84.578 295.113 84.6167 308.099C84.6399 316.002 84.6541 323.904 84.656 331.806C84.6584 337.789 84.6763 343.771 84.6999 349.754C84.7071 352.192 84.7092 354.631 84.7058 357.069C84.7019 360.401 84.7164 363.732 84.7353 367.064C84.7298 368.018 84.7243 368.972 84.7186 369.955C84.7949 377.756 85.7617 385.62 90.3148 392.125C96.0503 395.949 103.917 395.149 110.626 395.145C111.541 395.149 112.456 395.152 113.399 395.155C116.405 395.165 119.41 395.167 122.416 395.168C124.524 395.171 126.631 395.175 128.739 395.178C133.152 395.184 137.564 395.186 141.977 395.185C147.599 395.185 153.22 395.199 158.841 395.216C163.195 395.227 167.548 395.229 171.901 395.229C173.972 395.23 176.042 395.234 178.113 395.242C199.247 395.325 199.247 395.325 219.69 390.375C220.401 390.115 221.112 389.855 221.845 389.587C231.403 385.93 239.512 380.559 247.273 373.959C247.834 373.482 248.395 373.005 248.974 372.514C254.936 367.39 260.509 361.909 266.053 356.34C267.136 355.258 268.219 354.177 269.303 353.096C271.549 350.853 273.791 348.606 276.031 346.357C278.876 343.501 281.73 340.654 284.586 337.809C286.816 335.586 289.042 333.359 291.265 331.13C292.315 330.078 293.366 329.029 294.419 327.981C304.234 318.742 304.234 318.742 312.127 308C311.409 300.295 306.958 294.435 301.229 289.52C297.545 286.478 293.793 283.522 290.047 280.557C284.481 276.044 279.818 270.719 275.151 265.312C271.108 260.692 266.942 256.187 262.738 251.714C261.679 250.587 260.623 249.456 259.572 248.321C241.102 228.48 217.961 215.502 190.474 214.497C189.444 214.468 188.415 214.44 187.354 214.41C186.241 214.373 185.129 214.337 183.983 214.299C170.159 213.865 156.331 213.65 142.502 213.438C139.827 213.394 137.151 213.351 134.475 213.307C128.026 213.201 121.577 213.099 115.127 213C114.235 208.425 113.984 204.004 113.998 199.358C113.995 198.247 113.995 198.247 113.993 197.114C113.988 194.684 113.991 192.254 113.995 189.824C113.994 188.131 113.993 186.438 113.992 184.745C113.99 181.207 113.992 177.67 113.997 174.132C114.003 169.587 113.999 165.043 113.993 160.499C113.99 157.008 113.991 153.518 113.994 150.027C113.994 148.35 113.993 146.674 113.991 144.997C113.989 142.663 113.992 140.329 113.998 137.995C113.996 137.297 113.994 136.6 113.992 135.881C114.013 131.114 114.013 131.114 115.127 130C118.208 129.889 121.266 129.843 124.347 129.839C125.316 129.834 126.286 129.829 127.284 129.824C130.517 129.809 133.75 129.802 136.983 129.797C139.238 129.791 141.493 129.785 143.748 129.78C148.499 129.769 153.25 129.763 158.001 129.76C164.028 129.754 170.056 129.73 176.084 129.702C180.757 129.683 185.431 129.678 190.104 129.676C192.322 129.673 194.539 129.666 196.757 129.652C207.94 129.59 218.925 129.845 230.023 131.325C231.325 131.498 231.325 131.498 232.654 131.675C258.107 135.464 279.944 149.125 298.389 166.445C300.616 168.523 302.872 170.527 305.19 172.5C309 175.795 312.519 179.363 316.055 182.947C319.321 186.24 322.709 189.311 326.229 192.328C331.02 196.547 335.411 201.104 339.502 206C342.759 209.793 346.425 212.678 350.373 215.723C354.111 218.813 357.471 222.217 360.841 225.7C364.095 229.047 367.53 232.017 371.127 235C372.258 236.117 373.387 237.237 374.505 238.367C376.542 240.418 378.598 242.448 380.655 244.48C384.939 248.716 389.217 252.959 393.49 257.207C396.064 259.766 398.642 262.322 401.226 264.872C403.741 267.355 406.249 269.845 408.752 272.34C410.156 273.736 411.568 275.125 412.981 276.513C421.259 284.789 426.909 292.14 427.565 304.188C427.246 317.9 418.298 328.259 408.897 337.363C405.704 340.316 402.416 343.155 399.127 346C397.434 347.472 395.747 348.952 394.065 350.438C393.29 351.117 392.515 351.796 391.717 352.496C389.617 354.527 387.73 356.566 385.827 358.773C382.079 363.117 378.082 367.158 374.002 371.188C373.313 371.873 372.623 372.558 371.913 373.264C370.577 374.59 369.24 375.916 367.902 377.241C364.609 380.505 361.336 383.788 358.077 387.086C356.989 388.182 355.902 389.279 354.815 390.375C354.284 390.914 353.754 391.453 353.207 392.008C350.333 394.899 347.402 397.662 344.311 400.32C339.487 404.493 335 408.981 330.502 413.5C329.682 414.316 328.863 415.132 328.018 415.973C324.442 419.555 320.956 423.129 317.729 427.031C315.127 430 315.127 430 312.127 431C311.632 431.949 311.137 432.897 310.627 433.875C299.806 453.843 273.959 466.475 253.26 472.793C251.883 473.198 250.506 473.601 249.127 474C248.094 474.306 247.06 474.611 245.995 474.926C233.756 478.25 221.077 480.055 208.42 480.573C207.452 480.614 206.484 480.654 205.487 480.695C190 481.262 174.494 481.184 158.999 481.2C156.238 481.203 153.477 481.207 150.716 481.212C142.044 481.225 133.372 481.235 124.699 481.239C114.745 481.243 104.791 481.261 94.8367 481.29C87.0909 481.312 79.3452 481.322 71.5994 481.323C66.9928 481.324 62.3863 481.33 57.7798 481.348C53.4596 481.364 49.1397 481.366 44.8195 481.358C43.2418 481.357 41.664 481.361 40.0863 481.371C28.9079 481.437 18.8735 481.059 9.88125 473.738C2.58385 466.506 0.334259 457.266 0.0031442 447.239C-0.00154305 445.858 -0.000850505 444.476 0.00429486 443.095C0.00314102 442.326 0.00198718 441.556 0.000798367 440.763C-0.00184607 438.188 0.00263594 435.612 0.00708818 433.036C0.00665204 431.17 0.00577632 429.304 0.00449901 427.438C0.00226257 422.311 0.00626373 417.185 0.0112771 412.059C0.0155936 406.53 0.0141343 401.001 0.0133748 395.472C0.0128503 385.893 0.0159891 376.315 0.0216126 366.737C0.029738 352.888 0.0323439 339.039 0.0336006 325.19C0.0357895 302.721 0.0424366 280.253 0.0519032 257.784C0.0610888 235.957 0.0681719 214.13 0.0724111 192.303C0.0725426 191.631 0.0726741 190.958 0.0728096 190.264C0.0741281 183.507 0.075404 176.749 0.0766485 169.992C0.0870881 113.328 0.105564 56.6639 0.127343 0Z" fill="#1D1E22"/>
<path d="M162.456 249.641C168.505 254.559 170.274 261.931 172.165 269.188C173.737 274.863 176.188 279.203 181.378 282.375C187.545 283.777 192.814 283.19 198.878 281.5C208.773 278.881 217.164 278.707 226.299 283.613C228.128 285 228.128 285 229.128 288C230.615 289.202 232.105 290.404 233.655 291.523C237.437 295.316 237.475 300.086 237.565 305.187C237.551 313.07 235.742 318.876 230.518 324.836C224.179 330.797 217.534 332.462 208.979 332.238C206.154 332.002 203.469 331.556 200.69 331C193.667 329.601 186.579 328.87 179.69 331.125C172.998 336.021 171.672 340.123 169.936 348.019C168.541 353.164 166.004 357.184 162.19 360.875C156.963 363.726 152.004 364.723 146.128 364C140.364 362.079 135.44 358.078 132.128 353C130.462 345.994 131.897 340.064 135.448 333.937C139.662 329.076 142.809 327.805 149.155 327.312C151.457 327.191 153.761 327.087 156.065 327C166.742 326.605 166.742 326.605 176.128 322C176.788 322 177.448 322 178.128 322C178.623 320.515 178.623 320.515 179.128 319C180.118 319 181.108 319 182.128 319C182.209 315.999 182.268 313.001 182.315 310C182.34 309.161 182.365 308.322 182.391 307.457C182.474 300.328 181.442 294.729 176.69 289.125C172.4 285.568 169.702 284.763 164.112 284.832C162.943 284.825 161.774 284.818 160.569 284.81C158.124 284.812 155.678 284.832 153.233 284.873C146.024 284.79 141.79 284.098 136.589 278.936C132.943 274.107 131.473 268.063 131.702 262.051C132.791 256.805 135.98 251.41 140.128 248C147.01 245.485 156.167 245.846 162.456 249.641Z" fill="#4D59C1"/>
<path d="M147.252 255.938C152.301 256.786 155.716 260.397 159.127 264C160.634 267.013 160.305 269.683 160.127 273C158.127 275 158.127 275 154.815 275.312C149.736 274.882 147.497 273.258 143.815 269.875C141.535 265.99 141.38 262.423 142.127 258C144.127 256 144.127 256 147.252 255.938Z" fill="#F2F0EE"/>
</svg>
